<svg width="273" height="392" viewBox="0 0 273 392" fill="none" xmlns="http://www.w3.org/2000/svg">
<path d="M-166 504.954C-116.21 484.034 -70.6911 454.822 -31.5587 418.675C-9.43388 398.22 10.4692 375.709 29.8546 352.813C43.5459 336.663 57.0919 320.094 66.7584 301.42C75.6863 284.156 81.1187 265.482 85.9519 246.797C94.1566 215.186 100.853 183.256 106.041 151.006C112.189 112.707 116.097 73.0368 105.64 35.617C102.08 22.869 95.8744 9.44153 83.5091 3.66623C65.7755 -4.63195 44.8662 6.59565 30.3897 19.4717C9.73051 37.8503 -6.53741 60.2498 -22.2296 82.6994C-75.5235 158.937 -125.333 240.727 -139.484 331.517" fill="#194429"/>
<path d="M-36.4153 343.964C-22.8635 324.657 -10.3373 304.712 1.16323 284.128C12.6638 263.544 23.0748 242.451 32.3963 220.85C41.7216 199.338 49.9224 177.419 56.9988 155.094C64.0752 132.769 69.9922 110.184 74.7499 87.3385C79.5075 64.4303 83.0748 41.3328 85.4517 18.0459C85.7425 15.1499 86.0178 12.2483 86.2776 9.34116C86.6033 5.67102 80.6243 5.70444 80.2985 9.34116C78.2435 32.3941 74.9903 55.3079 70.5389 78.0824C66.0954 100.786 60.4963 123.249 53.7418 145.47C46.9872 167.692 39.0946 189.616 30.064 211.243C21.1186 232.636 11.0799 253.566 -0.0523567 274.031C-11.1846 294.496 -23.3501 314.423 -36.5491 333.811C-38.2125 336.247 -39.8914 338.675 -41.5859 341.096C-43.7379 344.159 -38.5557 347.021 -36.4153 343.964Z" fill="#153A23"/>
<path d="M74.2555 88.4526C81.2757 77.3141 82.5146 74.6297 91.4192 64.8612C92.4719 63.6973 104.372 51.2778 103.174 50.1361C102.08 49.0891 92.6231 56.4628 91.5413 57.6323C82.311 67.7572 76.3552 74.0115 69.0791 85.5677C67.0958 88.731 72.2664 91.6048 74.2555 88.4526Z" fill="#153A23"/>
<path d="M56.5859 157.244C64.8216 141.973 68.166 136.231 78.5828 122.308C79.5308 121.049 92.5766 106.948 91.2738 106.218C89.7615 105.377 83.1311 111.036 81.9271 112.099C61.6285 130.255 59.6569 139.071 51.4153 154.348C49.653 157.633 54.812 160.529 56.5859 157.244Z" fill="#153A23"/>
<path d="M39.1256 204.733C50.0213 187.015 61.8127 169.847 74.4998 153.228C78.0593 148.572 77.9895 148.528 81.6887 143.972C82.6774 142.753 89.0345 133.569 87.7957 132.383C86.7604 131.397 76.6286 141.037 75.634 142.268C62.2334 158.77 55.2016 168.978 43.6216 186.677C40.318 191.697 37.0997 196.758 33.9667 201.859C31.9892 205.045 37.1772 207.924 39.1256 204.733Z" fill="#153A23"/>
<path d="M20.1008 245.717C35.2695 234.578 54.7014 217.247 67.0667 203.279C86.6848 181.108 68.8116 192.452 62.8267 199.23C50.7988 212.802 36.299 224.214 21.5316 235.035C20.252 235.97 19.5774 237.508 20.4672 238.933C21.2059 240.142 18.7805 243.227 20.0717 242.275L20.1008 245.717Z" fill="#153A23"/>
<path d="M-87.2431 418.948C-61.995 413.696 -38.672 402.441 -17.9721 387.81C2.84993 373.108 20.9383 355.063 36.9445 335.643C56.0333 312.459 72.1966 287.247 88.4122 262.185C103.895 238.237 119.238 213.805 138.001 192.046C153.077 174.57 171.869 157.984 195.116 151.563C197.986 150.777 200.899 150.141 203.841 149.658L199.822 147.804C203.695 154.487 197.862 161.827 192.976 166.611C189.405 170.103 185.368 173.127 181.472 176.268L167.559 187.468C149.409 202.089 131.25 216.71 113.085 231.331C102.895 239.54 97.5436 244.369 87.3478 252.572C85.9635 253.686 80.9209 259.127 81.9213 260.514C82.8577 261.801 85.033 262.675 86.5743 261.695C110.341 246.508 139.377 240.844 167.454 245.917C166.71 243.879 165.965 241.846 165.221 239.791C141.371 260.065 113.995 276.179 84.335 287.402C76.0436 290.533 67.5937 293.263 59.0171 295.584L63.4257 299.176C67.8344 276.047 64.6471 251.782 54.8701 230.245C52.122 224.203 48.8353 218.399 45.0465 212.897C43.2726 210.319 39.6258 210.435 38.3172 213.37C28.9116 234.729 25.4739 258.065 28.3424 281.081C30.7735 300.685 39.1896 323.965 62.3614 327.59C73.2319 329.261 84.1256 325.919 94.9845 327.189C101.894 327.986 110.229 331.645 112.805 338.032C113.794 340.494 113.317 344.008 111.799 346.247C111.009 347.366 109.997 348.325 108.821 349.071C107.414 349.916 105.888 350.567 104.29 351.003C100.404 351.996 96.3745 352.372 92.3614 352.117C88.29 351.944 84.2187 351.56 80.4381 350.446C80.1706 350.363 79.9205 350.268 79.6646 350.168C79.083 349.945 80.1008 350.463 79.3912 350.006C78.7747 349.622 78.1698 349.238 77.5882 348.815C77.0066 348.391 77.5882 348.859 77.1404 348.464C76.8786 348.23 76.6227 348.001 76.3668 347.756C75.6979 347.122 75.0581 346.453 74.4416 345.768C71.9182 342.881 69.5648 339.862 67.3924 336.724C63.1931 330.87 59.0578 324.037 52.8519 319.905C51.5656 319.03 50.1339 318.371 48.6177 317.955C44.0985 316.808 41.772 323.43 46.3261 324.599C46.6285 324.677 46.9077 324.772 47.2276 324.867C47.5475 324.961 48.2862 325.385 47.5068 324.961C48.1316 325.296 48.7338 325.668 49.3098 326.075C50.4492 326.952 51.5006 327.929 52.4506 328.994C55.0846 331.95 57.5244 335.06 59.7557 338.305C64.0364 344.264 68.259 351.388 74.7092 355.464C77.9953 357.553 82.0725 358.06 85.8996 358.589C90.4078 359.218 94.9772 359.341 99.5153 358.956C107.809 358.232 116.563 354.835 119.628 346.815C122.85 338.383 118.086 330.141 110.717 325.485C107.021 323.178 102.896 321.573 98.5673 320.757C93.2105 319.738 87.8305 320.044 82.4156 320.456C71.7022 321.275 60.4246 322.539 51.4211 315.728C43.7379 309.908 39.7887 300.256 37.596 291.39C32.1345 269.236 34.1993 245.104 41.993 223.713C42.9934 220.98 44.0849 218.279 45.2675 215.609L38.5382 216.083C51.51 234.974 58.3095 257.137 58.069 279.745C57.9839 286.155 57.3361 292.547 56.1322 298.853C55.7193 301.025 58.4587 303.008 60.5409 302.451C92.2232 293.855 122.078 279.985 148.738 261.478C156.123 256.353 163.236 250.877 170.048 245.071C172.672 242.843 170.787 239.501 167.821 238.944C145.202 234.901 121.442 237.747 100.353 246.541C94.397 249.03 91.3319 250.439 85.917 253.909C87.2664 255.825 85.9868 259.3 87.3303 261.216C106.225 245.993 125.124 230.771 144.027 215.548L172.369 192.714L186.817 181.08C190.806 177.861 194.959 174.77 198.519 171.122C205.335 164.188 211.786 154.142 206.307 144.674C205.93 143.996 205.337 143.451 204.614 143.117C203.891 142.784 203.076 142.679 202.288 142.819C177.592 146.924 156.834 161.755 140.205 179.019C120.919 199.096 105.617 222.526 90.57 245.572C74.0927 270.873 58.1621 296.536 39.7538 320.573C24.178 340.895 6.65373 359.897 -13.7553 375.864C-33.1815 391.063 -55.3819 403.443 -79.6355 409.959C-82.6425 410.767 -85.6844 411.48 -88.7321 412.12C-93.3443 413.056 -91.8437 419.9 -87.2431 418.948Z" fill="#1F7A36"/>
<path d="M-3.99573 474.385C3.79799 489.132 11.8941 503.679 24.2012 514.428C39.6956 527.961 58.2319 538.888 79.8507 540.809C101.47 542.73 126.537 534.293 142.468 515.541C145.679 511.76 148.61 507.266 148.802 502.671C149.209 492.975 138.414 489.583 130.132 486.308C121.85 483.034 114.399 472.274 121.803 464.884L169.077 479.921C181.216 483.78 194.04 487.662 207.551 484.482C221.062 481.302 235.068 468.331 234.783 454.714C234.201 426.027 182.437 435.974 175.178 409.414C187.433 404.118 200.188 406.568 211.733 409.692C223.278 412.817 235.213 416.543 247.794 413.513C260.374 410.483 273.466 397.73 272.082 385.282C269.831 365.194 234.981 363.145 239.407 342.221C240.983 334.764 247.422 328.771 251.691 322.049C261.078 307.241 266.749 276.014 246.979 263.823C234.422 256.042 211 259.869 199.496 273.235C187.346 287.319 185.7 306.16 177.063 329.829C172.991 341.051 161.156 335.087 156.747 325.697C155.351 322.723 155.531 319.014 155.537 315.483C155.537 298.909 148.017 280.909 131.935 280.692C115.94 280.475 101.702 298.296 97.1307 314.893C92.5591 331.489 94.083 348.23 90.3257 364.916C89.5696 368.257 88.4878 371.838 85.9868 374.433C79.2051 381.473 68.6662 375.581 66.1361 367.411C63.6061 359.241 64.8565 349.294 60.634 342.132C55.7076 333.778 44.1218 331.656 33.8387 335.07C23.5556 338.484 14.5405 346.398 7.14812 355.103C-7.89259 372.857 -17.6347 394.973 -19.967 416.671C-19.967 416.687 -16.5646 450.615 -3.99573 474.385Z" fill="#198C36"/>
</svg>
